<svg class="main-svg" xmlns="http://www.w3.org/2000/svg" xmlns:xlink="http://www.w3.org/1999/xlink" width="700" height="500" style="" viewBox="0 0 700 500"><rect x="0" y="0" width="700" height="500" style="fill: rgb(255, 255, 255); fill-opacity: 1;"/><defs id="defs-61c4d2"><g class="clips"><clipPath id="clip61c4d2xyplot" class="plotclip"><rect width="137.99999999999997" height="365.08333333333337"/></clipPath><clipPath id="clip61c4d2x2y2plot" class="plotclip"><rect width="413.99999999999994" height="365.08333333333337"/></clipPath><clipPath class="axesclip" id="clip61c4d2x"><rect x="74" y="0" width="137.99999999999997" height="500"/></clipPath><clipPath class="axesclip" id="clip61c4d2y"><rect x="0" y="69.75000000000006" width="700" height="365.08333333333337"/></clipPath><clipPath class="axesclip" id="clip61c4d2xy"><rect x="74" y="69.75000000000006" width="137.99999999999997" height="365.08333333333337"/></clipPath><clipPath class="axesclip" id="clip61c4d2y2"><rect x="0" y="69.75000000000006" width="700" height="365.08333333333337"/></clipPath><clipPath class="axesclip" id="clip61c4d2xy2"><rect x="74" y="69.75000000000006" width="137.99999999999997" height="365.08333333333337"/></clipPath><clipPath class="axesclip" id="clip61c4d2x2"><rect x="224" y="0" width="413.99999999999994" height="500"/></clipPath><clipPath class="axesclip" id="clip61c4d2x2y"><rect x="224" y="69.75000000000006" width="413.99999999999994" height="365.08333333333337"/></clipPath><clipPath class="axesclip" id="clip61c4d2x2y2"><rect x="224" y="69.75000000000006" width="413.99999999999994" height="365.08333333333337"/></clipPath></g><g class="gradients"/></defs><g class="bglayer"/><g class="layer-below"><g class="imagelayer"/><g class="shapelayer"/></g><g class="cartesianlayer"><g class="subplot xy"><g class="layer-subplot"><g class="shapelayer"/><g class="imagelayer"/></g><g class="gridlayer"><g class="x"/><g class="y"/></g><g class="zerolinelayer"/><path class="xlines-below"/><path class="ylines-below"/><g class="overlines-below"/><g class="xaxislayer-below"/><g class="yaxislayer-below"/><g class="overaxes-below"/><g class="plot" transform="translate(74,69.75000000000006)" clip-path="url('#clip61c4d2xyplot')"><g class="scatterlayer mlayer"><g class="trace scatter trace8743c0" style="stroke-miterlimit: 2; opacity: 1;"><g class="fills"/><g class="errorbars"/><g class="lines"><path class="js-line" d="M0,3411.17L35.36,3241.55L203.96,3228.48L-9.11,3202.42L0,3150.21L0,3137.21L-21.72,1806.41L83.88,1793.41L578.22,1780.34L316.02,1767.27L-20.59,1754.28L0,1702.07L0,1689L9.42,827.91L16.77,814.92L25.49,801.85L21.97,788.78L11.79,749.64L10.09,736.64L12.35,671.37L19.22,658.37L25.67,632.23L22.62,619.23L28.4,580.1L38.57,567.03L47.91,553.96L35.33,540.96L27.56,527.89L30.83,514.82L25.9,488.75L31.77,475.68L45.5,449.61L37.81,436.54L32.2,423.47L30.22,410.48L32.39,397.41L29.41,384.34L46.67,371.34L53.09,358.27L39.48,345.2L41.43,332.2L50.38,319.13L63.44,306.06L67.69,293.07L61.66,280L65.08,266.93L75.96,253.93L75.09,240.86L66.79,227.79L61.34,214.79L63.98,201.72L48.92,188.65L40.09,175.58L47.98,162.59L41.28,149.52L34.35,136.45L20.64,123.45L18.99,110.38L26.48,97.31L30.86,84.31L54.44,71.24L62,58.17L70.9,45.18L78.05,32.11L75.8,19.04L76.3,6.04L75,-7.03L79.52,-20.1L91.63,-33.1L89.74,-46.17L82.8,-59.24L85.84,-85.31L97,-98.38L104.6,-111.37L89.74,-124.44L76.24,-137.51L88.36,-150.51L93.88,-163.58L86.66,-176.65L73.75,-215.79L62.69,-228.86L70.17,-254.92L69.73,-267.99L74.73,-280.99L44.66,-294.06L18.31,-320.13L6.07,-333.2L-0.23,-359.26L-0.01,-372.33L0,-502.81" style="vector-effect: non-scaling-stroke; fill: none; stroke: rgb(0, 0, 0); stroke-opacity: 1; stroke-width: 1.5px; opacity: 1;"/></g><g class="points"/><g class="text"/></g><g class="trace scatter traceec8f2f" style="stroke-miterlimit: 2;"><g class="fills"><g><path class="js-fill" d="M0,-365.08L0,-365.08L0,3411.17L0.67,332.2L0.76,319.13L3.21,240.86L2.88,227.79L2,214.79L2.01,201.72L0.65,110.38L0.96,97.31L2.38,45.18L2.27,32.11L3.28,6.04L4.35,-7.03L6.74,-85.31L8.61,-98.38L0,-502.81" style="fill: rgb(0, 0, 0); fill-opacity: 1; stroke-width: 0;"/></g></g><g class="errorbars"/><g class="lines"><path class="js-line" d="M0,3411.17L0.67,332.2L0.76,319.13L3.21,240.86L2.88,227.79L2,214.79L2.01,201.72L0.65,110.38L0.96,97.31L2.38,45.18L2.27,32.11L3.28,6.04L4.35,-7.03L6.74,-85.31L8.61,-98.38L0,-502.81" style="vector-effect: non-scaling-stroke; fill: none; stroke: rgb(0, 0, 0); stroke-opacity: 1; stroke-width: 1.5px; opacity: 1;"/></g><g class="points"/><g class="text"/></g><g class="trace scatter trace258036" style="stroke-miterlimit: 2; opacity: 1;"><g class="fills"/><g class="errorbars"/><g class="lines"><path class="js-line" d="M-2759.9999999999995,155.95L-2760.000000000002,155.95L2898,155.95L2897.9999999999995,155.95" style="vector-effect: non-scaling-stroke; fill: none; stroke: rgb(0, 0, 0); stroke-opacity: 1; stroke-width: 1px; opacity: 1; stroke-dasharray: 9px, 9px;"/></g><g class="points"/><g class="text"/></g><g class="trace scatter tracef71430" style="stroke-miterlimit: 2; opacity: 1;"><g class="fills"/><g class="errorbars"/><g class="lines"><path class="js-line" d="M-2759.9999999999995,365.08L-2760.000000000002,365.08L2898,365.08L2897.9999999999995,365.08" style="vector-effect: non-scaling-stroke; fill: none; stroke: rgb(0, 0, 0); stroke-opacity: 1; stroke-width: 4px; opacity: 1;"/></g><g class="points"/><g class="text"/></g><g class="trace scatter tracec90a43" style="stroke-miterlimit: 2; opacity: 1;"><g class="fills"/><g class="errorbars"/><g class="lines"><path class="js-line" d="M-2759.9999999999995,0L-2760.000000000002,0L2898,0L2897.9999999999995,0" style="vector-effect: non-scaling-stroke; fill: none; stroke: rgb(0, 0, 0); stroke-opacity: 1; stroke-width: 4px; opacity: 1;"/></g><g class="points"/><g class="text"/></g><g class="trace scatter trace11cdc2" style="stroke-miterlimit: 2; opacity: 1;"><g class="fills"/><g class="errorbars"/><g class="lines"><path class="js-line" d="M0,7666.750000000001L0,7666.750000000004L0,-7301.6666666666715L0,-7301.666666666668" style="vector-effect: non-scaling-stroke; fill: none; stroke: rgb(0, 0, 0); stroke-opacity: 1; stroke-width: 4px; opacity: 1;"/></g><g class="points"/><g class="text"/></g><g class="trace scatter trace5e6979" style="stroke-miterlimit: 2; opacity: 1;"><g class="fills"/><g class="errorbars"/><g class="lines"><path class="js-line" d="M138,7666.750000000001L138,7666.750000000004L138,-7301.6666666666715L138,-7301.666666666668" style="vector-effect: non-scaling-stroke; fill: none; stroke: rgb(0, 0, 0); stroke-opacity: 1; stroke-width: 4px; opacity: 1;"/></g><g class="points"/><g class="text"/></g></g></g><g class="overplot"/><path class="xlines-above crisp" d="" style="fill: none; stroke-width: 1px; stroke: rgb(0, 0, 0); stroke-opacity: 0;"/><path class="ylines-above crisp" d="" style="fill: none; stroke-width: 1px; stroke: rgb(0, 0, 0); stroke-opacity: 0;"/><g class="overlines-above"/><g class="xaxislayer-above"/><g class="yaxislayer-above"><path class="ytick ticks crisp" d="M74,0h5" transform="translate(0,361.82000000000005)" style="stroke: rgb(0, 0, 0); stroke-opacity: 0; stroke-width: 1px;"/><path class="ytick ticks crisp" d="M74,0h5" transform="translate(0,288.80000000000007)" style="stroke: rgb(0, 0, 0); stroke-opacity: 0; stroke-width: 1px;"/><path class="ytick ticks crisp" d="M74,0h5" transform="translate(0,215.78000000000006)" style="stroke: rgb(0, 0, 0); stroke-opacity: 0; stroke-width: 1px;"/><path class="ytick ticks crisp" d="M74,0h5" transform="translate(0,142.77000000000004)" style="stroke: rgb(0, 0, 0); stroke-opacity: 0; stroke-width: 1px;"/><g class="ytick"><text text-anchor="end" x="73" y="5.949999999999999" transform="translate(0,434.83000000000004)" style="font-family: sans-serif; font-size: 17px; fill: rgb(0, 0, 0); fill-opacity: 1; white-space: pre;">-10</text></g><g class="ytick"><text text-anchor="end" x="73" y="5.949999999999999" transform="translate(0,361.82000000000005)" style="font-family: sans-serif; font-size: 17px; fill: rgb(0, 0, 0); fill-opacity: 1; white-space: pre;">-9</text></g><g class="ytick"><text text-anchor="end" x="73" y="5.949999999999999" transform="translate(0,288.80000000000007)" style="font-family: sans-serif; font-size: 17px; fill: rgb(0, 0, 0); fill-opacity: 1; white-space: pre;">-8</text></g><g class="ytick"><text text-anchor="end" x="73" y="5.949999999999999" transform="translate(0,215.78000000000006)" style="font-family: sans-serif; font-size: 17px; fill: rgb(0, 0, 0); fill-opacity: 1; white-space: pre;">-7</text></g><g class="ytick"><text text-anchor="end" x="73" y="5.949999999999999" transform="translate(0,142.77000000000004)" style="font-family: sans-serif; font-size: 17px; fill: rgb(0, 0, 0); fill-opacity: 1; white-space: pre;">-6</text></g><g class="ytick"><text text-anchor="end" x="73" y="5.949999999999999" transform="translate(0,69.75000000000006)" style="font-family: sans-serif; font-size: 17px; fill: rgb(0, 0, 0); fill-opacity: 1; white-space: pre;">-5</text></g></g><g class="overaxes-above"/></g><g class="subplot x2y2"><g class="layer-subplot"><g class="shapelayer"/><g class="imagelayer"/></g><g class="gridlayer"><g class="x2"/><g class="y2"/></g><g class="zerolinelayer"/><path class="xlines-below"/><path class="ylines-below"/><g class="overlines-below"/><g class="xaxislayer-below"/><g class="yaxislayer-below"/><g class="overaxes-below"/><g class="plot" transform="translate(224,69.75000000000006)" clip-path="url('#clip61c4d2x2y2plot')"><g class="scatterlayer mlayer"><g class="trace scatter trace7b5ee9" style="stroke-miterlimit: 2; opacity: 1;"><g class="fills"/><g class="errorbars"/><g class="lines"><path class="js-line" d="M0.01,3233.13L414,3232.89" style="vector-effect: non-scaling-stroke; fill: none; stroke: rgb(0, 0, 0); stroke-opacity: 1; stroke-width: 1.5px; opacity: 1;"/></g><g class="points"/><g class="text"/></g><g class="trace scatter trace3a7bab" style="stroke-miterlimit: 2; opacity: 1;"><g class="fills"/><g class="errorbars"/><g class="lines"><path class="js-line" d="M0.01,3232.65L414,3232.89" style="vector-effect: non-scaling-stroke; fill: none; stroke: rgb(0, 0, 0); stroke-opacity: 1; stroke-width: 1.5px; opacity: 1;"/></g><g class="points"/><g class="text"/></g><g class="trace scatter trace6c53aa" style="stroke-miterlimit: 2; opacity: 1;"><g class="fills"/><g class="errorbars"/><g class="lines"><path class="js-line" d="M0.01,1785.17L414,1786.17" style="vector-effect: non-scaling-stroke; fill: none; stroke: rgb(0, 0, 0); stroke-opacity: 1; stroke-width: 1.5px; opacity: 1;"/></g><g class="points"/><g class="text"/></g><g class="trace scatter trace586b7c" style="stroke-miterlimit: 2; opacity: 1;"><g class="fills"/><g class="errorbars"/><g class="lines"><path class="js-line" d="M0.01,1785.04L414,1783.7" style="vector-effect: non-scaling-stroke; fill: none; stroke: rgb(0, 0, 0); stroke-opacity: 1; stroke-width: 1.5px; opacity: 1;"/></g><g class="points"/><g class="text"/></g><g class="trace scatter trace90bd1c" style="stroke-miterlimit: 2; opacity: 1;"><g class="fills"/><g class="errorbars"/><g class="lines"><path class="js-line" d="M0.01,1785.04L414,1783.7" style="vector-effect: non-scaling-stroke; fill: none; stroke: rgb(0, 0, 0); stroke-opacity: 1; stroke-width: 1.5px; opacity: 1;"/></g><g class="points"/><g class="text"/></g><g class="trace scatter trace205e1c" style="stroke-miterlimit: 2; opacity: 1;"><g class="fills"/><g class="errorbars"/><g class="lines"><path class="js-line" d="M0.01,1782.25L414,1783.26" style="vector-effect: non-scaling-stroke; fill: none; stroke: rgb(0, 0, 0); stroke-opacity: 1; stroke-width: 1.5px; opacity: 1;"/></g><g class="points"/><g class="text"/></g><g class="trace scatter trace58b5be" style="stroke-miterlimit: 2; opacity: 1;"><g class="fills"/><g class="errorbars"/><g class="lines"><path class="js-line" d="M0.01,1781.24L414,1783.26" style="vector-effect: non-scaling-stroke; fill: none; stroke: rgb(0, 0, 0); stroke-opacity: 1; stroke-width: 1.5px; opacity: 1;"/></g><g class="points"/><g class="text"/></g><g class="trace scatter trace0571b7" style="stroke-miterlimit: 2; opacity: 1;"><g class="fills"/><g class="errorbars"/><g class="lines"><path class="js-line" d="M0.01,1781.24L414,1780.39" style="vector-effect: non-scaling-stroke; fill: none; stroke: rgb(0, 0, 0); stroke-opacity: 1; stroke-width: 1.5px; opacity: 1;"/></g><g class="points"/><g class="text"/></g><g class="trace scatter trace0d6d57" style="stroke-miterlimit: 2; opacity: 1;"><g class="fills"/><g class="errorbars"/><g class="lines"><path class="js-line" d="M0.01,851.67L17.31,840.78L18.46,839.37L51.9,808.84L53.06,808.76L103.8,810.77L104.95,812.37L141.85,850.87L143,850.25L158,826.19L159.15,823.13L179.91,740.22L181.06,734.14L191.44,720.16L192.59,719.67L214.5,700.18L215.65,698.98L234.11,690.51L235.26,690.46L288.3,691.2L289.46,692.36L321.75,721.54L322.9,690.56L352.88,795.77L354.04,797.72L367.87,809.02L369.03,685.63L397.86,788.04L399.01,790.13L414,803.24" style="vector-effect: non-scaling-stroke; fill: none; stroke: rgb(0, 0, 0); stroke-opacity: 1; stroke-width: 1.5px; opacity: 1;"/></g><g class="points"/><g class="text"/></g><g class="trace scatter trace685656" style="stroke-miterlimit: 2; opacity: 1;"><g class="fills"/><g class="errorbars"/><g class="lines"><path class="js-line" d="M0.01,561.85L4.62,566.97L5.78,569.63L28.84,649.57L29.99,653.07L46.14,678.18L47.29,678.16L69.2,669.59L70.35,668.72L92.27,646.68L94.57,652.07L95.72,654.22L103.8,657.99L104.95,656.94L106.1,655.52L116.48,629.21L117.63,625.13L138.39,561.85L139.55,561.78L148.77,556.3L149.92,555L156.84,544.36L158,548.96L159.15,557.87L186.83,721.38L187.98,721.19L189.13,720.92L208.74,706.41L209.89,705.16L232.95,690.54L234.11,690.51L289.46,692.36L290.61,693.6L321.75,721.54L322.9,690.56L336.74,617.96L339.04,624.05L340.2,627.89L360.95,674.91L362.11,675.91L369.03,685.63L370.18,679.54L371.33,673.31L385.17,595.01L387.48,602.7L388.63,606.33L407.08,643.59L408.23,644.53L414,646.68" style="vector-effect: non-scaling-stroke; fill: none; stroke: rgb(0, 0, 0); stroke-opacity: 1; stroke-width: 1.5px; opacity: 1;"/></g><g class="points"/><g class="text"/></g><g class="trace scatter trace1e0b89" style="stroke-miterlimit: 2; opacity: 1;"><g class="fills"/><g class="errorbars"/><g class="lines"><path class="js-line" d="M0.01,561.83L49.6,567.4L50.75,568.57L63.44,592.64L64.59,595.24L92.27,646.66L93.42,643.56L124.55,564.66L125.71,563.94L147.62,557.44L148.77,556.28L160.3,537.23L161.46,534.6L175.29,493.19L176.45,488.98L185.67,461.93L186.83,462.53L192.59,470.77L193.74,473.26L227.19,549.01L228.34,549.41L245.64,547.01L246.79,546.61L271.01,533.11L272.16,532.54L280.23,533.76L281.39,534.58L288.3,534.3L289.46,533.27L297.53,519.18L298.68,516.35L320.59,461.99L321.75,461.74L327.51,572.59L328.67,578.05L335.58,604.75L337.89,597.07L339.04,589.79L345.96,542.93L348.27,547.49L349.42,549.58L363.26,564.81L364.41,565.25L367.87,565.82L369.03,531.71L374.79,554.08L375.95,559.08L399.01,632.3L400.16,634.4L414,646.66" style="vector-effect: non-scaling-stroke; fill: none; stroke: rgb(0, 0, 0); stroke-opacity: 1; stroke-width: 1.5px; opacity: 1;"/></g><g class="points"/><g class="text"/></g><g class="trace scatter trace9c338a" style="stroke-miterlimit: 2; opacity: 1;"><g class="fills"/><g class="errorbars"/><g class="lines"><path class="js-line" d="M0.01,455.09L3.47,451.7L4.62,449.23L9.24,438.67L10.39,439.71L11.54,441.71L39.22,497.16L40.37,497.96L48.44,498.61L49.6,497.65L56.52,485.92L57.67,483.27L73.81,439.08L74.97,435.77L91.11,393.55L92.27,393.55L104.95,438.65L106.1,441.5L113.02,452.48L114.18,453.13L118.79,452.05L119.94,450.9L126.86,439.25L128.01,437.04L129.17,434.93L130.32,439.17L136.09,454.58L137.24,455.09L145.31,453.58L146.46,461.25L158,542.1L160.3,537.22L161.46,534.58L175.29,493.17L176.45,488.96L185.67,461.93L186.83,462.53L192.59,470.77L193.74,473.26L227.19,549.01L228.34,549.41L245.64,547.01L246.79,546.61L271.01,533.11L272.16,532.54L280.23,533.76L281.39,534.58L288.3,534.3L289.46,533.27L297.53,519.18L298.68,516.35L320.59,461.99L321.75,461.74L322.9,549.54L326.36,531.24L327.51,525.01L332.12,505.06L333.28,508.9L334.43,512.62L344.81,540.46L345.96,539.74L347.12,530.82L352.88,484.37L355.19,488.46L356.34,490.3L365.57,499.01L366.72,499.3L367.87,499.39L369.03,531.71L374.79,554.06L375.95,559.06L384.02,590.94L385.17,586.94L386.32,578.8L404.77,432.44L405.93,422.83L410.54,393.21L411.69,393.4L414,393.55" style="vector-effect: non-scaling-stroke; fill: none; stroke: rgb(0, 0, 0); stroke-opacity: 1; stroke-width: 1.5px; opacity: 1;"/></g><g class="points"/><g class="text"/></g><g class="trace scatter trace87fdce" style="stroke-miterlimit: 2; opacity: 1;"><g class="fills"/><g class="errorbars"/><g class="lines"><path class="js-line" d="M0.01,426.99L4.62,429.05L5.78,430.13L9.24,430.88L10.39,427.4L25.38,369.95L26.53,369.21L39.22,372.59L40.37,372.74L51.9,373.1L53.06,373.13L81.89,374.88L83.04,375.45L92.27,393.55L93.42,388.81L96.88,377.99L98.03,375.66L100.34,374.27L101.49,374.01L104.95,373.34L106.1,374.31L110.72,380.19L111.87,382.03L118.79,396.14L119.94,399.23L128.01,429.55L129.17,434.46L137.24,426.99L138.39,426.99L140.7,430.55L141.85,434.71L145.31,451.46L146.46,450.15L147.62,448.65L154.54,435.6L155.69,432.78L163.76,408.33L164.92,404.22L167.22,397.72L168.37,401.22L179.91,447.17L181.06,452.07L185.67,461.75L186.83,461.8L205.28,465.66L206.43,465.99L230.65,469.94L231.8,470.03L238.72,474.2L239.87,475.42L256.02,499.34L257.17,501.16L274.47,521.3L275.62,521.44L280.23,517.73L281.39,515.61L306.76,467.14L307.91,466.14L317.13,462.09L318.29,461.93L321.75,461.73L322.9,469.94L330.97,501.1L332.12,499.93L333.28,493.81L341.35,465.65L342.5,465.75L347.12,472.68L348.27,475.05L352.88,484.35L354.04,474.73L366.72,375.12L367.87,373.02L369.03,521.44L372.49,508.41L373.64,502.62L394.4,399.46L395.55,396.59L399.01,391.85L400.16,391.3L404.77,391.6L405.93,391.95L414,393.55" style="vector-effect: non-scaling-stroke; fill: none; stroke: rgb(0, 0, 0); stroke-opacity: 1; stroke-width: 1.5px; opacity: 1;"/></g><g class="points"/><g class="text"/></g><g class="trace scatter trace4baaae" style="stroke-miterlimit: 2; opacity: 1;"><g class="fills"/><g class="errorbars"/><g class="lines"><path class="js-line" d="M0.01,380.68L6.93,379.7L8.08,379.12L11.54,376.04L12.7,374.47L17.31,366.09L18.46,366.45L25.38,368.81L26.53,366.47L41.53,324.08L42.68,322.17L44.99,320.51L46.14,320.51L51.9,321.25L53.06,321.63L56.52,323.47L57.67,324.39L61.13,328.29L62.28,329.98L66.9,338.42L68.05,340.84L83.04,374.94L84.19,374.98L98.03,374.68L99.18,373.98L101.49,372.36L102.64,372.3L106.1,372.64L107.26,372.23L119.94,366.98L121.09,368.07L126.86,376.8L128.01,377.9L132.63,380.28L133.78,380.49L144.16,380.58L145.31,380.54L154.54,381.07L155.69,381.42L160.3,384.44L161.46,385.79L166.07,394.58L167.22,397.72L176.45,432.39L177.6,437.3L185.67,461.75L186.83,461.8L205.28,465.66L206.43,465.99L230.65,469.94L231.8,470.03L238.72,474.2L239.87,475.42L256.02,499.34L257.17,501.16L274.47,521.3L275.62,521.44L280.23,517.73L281.39,515.61L306.76,467.14L307.91,466.14L317.13,462.09L318.29,461.93L321.75,461.73L322.9,469.94L335.58,412.12L336.74,414.68L339.04,416.87L340.2,416.01L342.5,409.98L343.66,405.19L349.42,372.76L350.58,365.48L362.11,293.17L363.26,299.12L366.72,318.52L367.87,320.51L369.03,521.44L372.49,508.39L373.64,502.6L394.4,399.45L395.55,396.58L399.01,391.85L400.16,391.3L404.77,391.6L405.93,391.94L409.39,392.95L410.54,387.7L412.85,376.72L414,375.12" style="vector-effect: non-scaling-stroke; fill: none; stroke: rgb(0, 0, 0); stroke-opacity: 1; stroke-width: 1.5px; opacity: 1;"/></g><g class="points"/><g class="text"/></g><g class="trace scatter trace8271b9" style="stroke-miterlimit: 2; opacity: 1;"><g class="fills"/><g class="errorbars"/><g class="lines"><path class="js-line" d="M0.01,380.66L4.62,379.33L5.78,378.57L10.39,373.92L11.54,372.35L16.16,365.74L17.31,364.63L33.45,314.84L34.61,310.56L43.83,277.23L44.99,276.05L47.29,276.49L48.44,277.68L53.06,285.69L54.21,287.86L59.98,296.9L61.13,298.15L64.59,300.69L65.74,301.18L70.35,301.86L71.51,301.8L79.58,300.14L80.73,299.81L89.96,297.91L91.11,297.87L94.57,298.57L95.72,299.55L98.03,302.95L99.18,305.36L103.8,318.3L104.95,322.01L116.48,357.52L117.63,360.42L119.94,365.7L121.09,366.54L124.55,365.32L125.71,366.79L129.17,374.58L130.32,376.32L133.78,379.64L134.93,380.21L139.55,380.66L140.7,380.64L155.69,381.41L156.84,381.89L160.3,384.43L161.46,385.78L167.22,395.62L168.37,391.14L181.06,337.92L182.21,333.23L183.37,328.71L184.52,328.71L186.83,327.87L187.98,326.88L193.74,321.02L194.9,321.15L197.2,323.11L198.36,324.64L204.12,334.35L205.28,336.42L214.5,351.43L215.65,352.95L221.42,358.9L222.57,359.74L227.19,361.82L228.34,362.01L232.95,361.61L234.11,361.02L237.56,357.96L238.72,356.54L243.33,349.22L244.48,347.05L252.56,329.71L253.71,327.09L262.93,307.89L264.09,306L268.7,300.37L269.85,299.47L273.31,297.91L274.47,297.71L277.93,297.86L279.08,298.42L283.69,302.46L284.84,303.69L297.53,316.6L298.68,317.32L302.14,318.45L303.3,318.47L307.91,317.3L309.06,317L311.37,317.25L312.52,318.04L315.98,322.79L317.13,324.64L320.59,328.42L321.75,328.71L322.9,362.08L324.05,367.31L334.43,408.92L335.58,409.34L347.12,344.05L348.27,337.24L356.34,292.38L357.49,287.43L359.8,281L360.95,285.85L362.11,292.03L363.26,287.11L365.57,277.42L366.72,276.08L367.87,276.05L369.03,297.65L371.33,298.61L372.49,299.76L375.95,305.34L377.1,307.71L387.48,329.7L388.63,331.27L390.94,333.09L392.09,333.16L394.4,331.1L395.55,328.84L397.86,321.84L399.01,317.26L404.77,288.09L405.93,288.3L410.54,288.84L411.69,291.57L414,297.87" style="vector-effect: non-scaling-stroke; fill: none; stroke: rgb(0, 0, 0); stroke-opacity: 1; stroke-width: 1.5px; opacity: 1;"/></g><g class="points"/><g class="text"/></g><g class="trace scatter trace358a48" style="stroke-miterlimit: 2; opacity: 1;"><g class="fills"/><g class="errorbars"/><g class="lines"><path class="js-line" d="M0.01,363.2L8.08,363.87L9.24,364.07L15,365.41L16.16,364.51L19.62,357.02L20.77,352.68L26.53,325.53L27.69,319.58L36.91,275.68L38.07,271.49L39.22,267.84L40.37,267.06L43.83,273.04L44.99,273.5L61.13,274.15L62.28,274.45L68.05,276.94L69.2,277.62L86.5,288.11L87.65,288.47L92.27,288.96L93.42,288.71L95.72,286.5L96.88,284.43L100.34,274.46L101.49,270.15L104.95,258.4L106.1,258.29L107.26,261.78L108.41,267.64L116.48,321.45L117.63,328.81L122.25,353.98L123.4,358.87L125.71,364.97L126.86,364.64L134.93,363.28L136.09,363.22L139.55,362.88L140.7,361.98L144.16,357.02L145.31,354.96L152.23,340.45L153.38,337.69L164.92,309.14L166.07,311.56L169.53,316.8L170.68,317.54L172.99,317.75L174.14,317.3L177.6,314.15L178.75,313.02L183.37,328.71L184.52,328.71L186.83,327.87L187.98,326.88L193.74,321.02L194.9,321.15L197.2,323.11L198.36,324.63L205.28,336.42L206.43,338.48L214.5,351.43L215.65,352.95L221.42,358.9L222.57,359.74L227.19,361.82L228.34,362.01L232.95,361.61L234.11,361.02L237.56,357.96L238.72,356.54L243.33,349.22L244.48,347.05L252.56,329.71L253.71,327.09L262.93,307.89L264.09,306L268.7,300.37L269.85,299.47L273.31,297.91L274.47,297.71L277.93,297.86L279.08,298.42L283.69,302.46L284.84,303.69L297.53,316.6L298.68,317.32L302.14,318.45L303.3,318.47L307.91,317.3L309.06,317L311.37,317.25L312.52,318.04L315.98,322.79L317.13,324.64L320.59,328.42L321.75,328.71L322.9,362.08L324.05,356.81L336.74,301.92L337.89,297.75L342.5,283.74L343.66,281.01L347.12,274.87L348.27,273.52L351.73,271.44L352.88,271.39L355.19,272.31L356.34,273.39L358.65,277.48L359.8,280.46L362.11,277.41L363.26,276.75L365.57,276.18L366.72,274.53L367.87,273.5L369.03,297.65L371.33,298.61L372.49,299.76L375.95,305.34L377.1,307.71L387.48,329.7L388.63,331.27L390.94,333.09L392.09,333.15L394.4,331.09L395.55,328.83L397.86,321.83L399.01,317.25L403.62,294.2L404.77,287.75L408.23,267.73L409.39,276.51L411.69,288.91L412.85,288.95L414,288.96" style="vector-effect: non-scaling-stroke; fill: none; stroke: rgb(0, 0, 0); stroke-opacity: 1; stroke-width: 1.5px; opacity: 1;"/></g><g class="points"/><g class="text"/></g><g class="trace scatter tracec57b0b" style="stroke-miterlimit: 2; opacity: 1;"><g class="fills"/><g class="errorbars"/><g class="lines"><path class="js-line" d="M0.01,260.74L2.32,259.93L3.47,258.94L6.93,254.03L8.08,251.92L17.31,234.85L18.46,233.5L21.92,231.34L23.07,231.3L25.38,232.31L26.53,233.36L29.99,238.71L31.15,241.2L36.91,257.19L38.07,260.61L39.22,263.87L40.37,264.55L42.68,260.27L43.83,259.16L47.29,258.34L48.44,257.12L50.75,254.28L51.9,254.52L63.44,256.8L64.59,256.73L69.2,255.56L70.35,255.06L76.12,251.54L77.27,250.66L85.35,243.3L86.5,242.11L91.11,237.12L92.27,237.12L95.72,243.51L96.88,244.82L99.18,245.93L100.34,245.78L102.64,244.38L103.8,243.27L114.18,231.62L115.33,231.04L117.63,230.81L118.79,231.24L121.09,233.24L122.25,234.81L125.71,241.42L126.86,244.05L132.63,256.6L133.78,258.35L136.09,260.47L137.24,260.74L138.39,260.74L139.55,259.95L141.85,253.81L143,248.71L147.62,220.2L148.77,227.23L159.15,286.64L160.3,291.98L164.92,308.72L166.07,311.56L169.53,316.8L170.68,317.54L172.99,317.75L174.14,317.3L177.6,314.14L178.75,312.59L183.37,304.27L184.52,304.27L189.13,305.16L190.28,305.4L192.59,304.87L193.74,303.57L196.05,298.44L197.2,295.29L202.97,286.09L204.12,283.97L222.57,249.1L223.73,247.73L227.19,245.01L228.34,244.61L232.95,244.62L234.11,244.8L239.87,246.65L241.02,247.18L250.25,252.45L251.4,253.14L258.32,256.51L259.48,256.87L264.09,257.31L265.24,257.14L271.01,255.06L272.16,254.6L275.62,253.86L276.77,253.86L277.93,254.28L279.08,255.56L281.39,260.32L282.54,263.45L292.92,292.28L294.07,294.59L298.68,301.61L299.84,302.9L304.45,306.72L305.6,307.41L309.06,308.82L310.21,308.93L313.67,307.77L314.83,307.06L319.44,304.64L320.59,304.37L321.75,304.27L322.9,244.48L328.67,246.95L329.82,247.64L337.89,253.64L339.04,254.6L350.58,263.44L351.73,264.03L355.19,264.85L356.34,264.56L358.65,262.27L359.8,259.97L362.11,253.77L363.26,254.68L365.57,257.89L366.72,258.56L367.87,258.78L369.03,253.86L375.95,266.47L377.1,268.22L382.86,275.59L384.02,276.8L389.78,281.75L390.94,282.54L397.86,286.11L399.01,286.53L404.77,287.73L405.93,281.13L414,237.12" style="vector-effect: non-scaling-stroke; fill: none; stroke: rgb(0, 0, 0); stroke-opacity: 1; stroke-width: 1.5px; opacity: 1;"/></g><g class="points"/><g class="text"/></g><g class="trace scatter trace057696" style="stroke-miterlimit: 2; opacity: 1;"><g class="fills"/><g class="errorbars"/><g class="lines"><path class="js-line" d="M0.01,181.6L2.32,183.28L3.47,185.12L9.24,197.86L10.39,200.55L18.46,217.89L19.62,220.06L26.53,231.22L27.69,232.76L33.45,238.97L34.61,239.92L39.22,242.72L40.37,243.17L41.53,245.05L42.68,249.33L44.99,253.8L46.14,253.8L49.6,254.07L50.75,253.33L56.52,243L57.67,242.78L68.05,239.98L69.2,239.6L87.65,233.15L88.81,234.48L91.11,237.11L92.27,237.11L94.57,233.13L95.72,233.69L100.34,234.94L101.49,234.99L106.1,234.01L107.26,233.46L111.87,229.91L113.02,228.69L117.63,222.43L118.79,220.53L124.55,208.99L125.71,206.31L136.09,182.19L137.24,181.6L138.39,181.6L139.55,182.53L141.85,189.23L143,194.35L148.77,227.21L149.92,234.29L159.15,286.62L160.3,291.97L164.92,308.71L166.07,306.96L169.53,302.58L170.68,302.02L172.99,302.5L174.14,303.57L176.45,307.32L177.6,309.95L178.75,312.58L179.91,310.79L183.37,304.27L184.52,304.27L189.13,305.16L190.28,305.4L192.59,304.87L193.74,303.57L196.05,298.44L197.2,295.29L202.97,286.09L204.12,283.97L222.57,249.1L223.73,247.73L227.19,245.01L228.34,244.61L232.95,244.62L234.11,244.8L239.87,246.65L241.02,247.18L250.25,252.45L251.4,253.14L258.32,256.51L259.48,256.87L264.09,257.31L265.24,257.14L271.01,255.06L272.16,254.6L275.62,253.86L276.77,253.86L277.93,254.28L279.08,255.56L281.39,260.32L282.54,263.45L292.92,292.28L294.07,294.59L298.68,301.61L299.84,302.9L304.45,306.72L305.6,307.41L310.21,308.93L311.37,308.79L314.83,307.06L315.98,306.34L320.59,304.37L321.75,304.27L322.9,244.48L324.05,244.18L329.82,243.72L330.97,243.81L337.89,245.36L339.04,245.75L360.95,253.17L362.11,253.36L369.03,253.86L370.18,251.4L377.1,234.35L378.25,231.17L392.09,191.48L393.24,189.48L395.55,188.16L396.7,189.41L399.01,196.85L400.16,203.03L403.62,228.37L404.77,238.04L408.23,267.39L409.39,261L414,237.11" style="vector-effect: non-scaling-stroke; fill: none; stroke: rgb(0, 0, 0); stroke-opacity: 1; stroke-width: 1.5px; opacity: 1;"/></g><g class="points"/><g class="text"/></g><g class="trace scatter traceaa1a54" style="stroke-miterlimit: 2; opacity: 1;"><g class="fills"/><g class="errorbars"/><g class="lines"><path class="js-line" d="M0.01,181.58L2.32,183.11L3.47,184.77L16.16,206.67L17.31,208.1L21.92,212.64L23.07,213.49L27.69,215.89L28.84,216.28L34.61,217.32L35.76,218.65L41.53,243.52L42.68,243.77L48.44,243.92L49.6,243.86L55.36,243.2L56.52,241.79L63.44,229.86L64.59,228.33L69.2,223.96L70.35,223.44L84.19,229.27L85.35,230.52L87.65,232.95L88.81,232.55L92.27,231.8L93.42,232.5L94.57,231.95L95.72,229.69L102.64,226.41L103.8,229.19L104.95,231.99L106.1,232.44L107.26,229.59L108.41,224.51L110.72,222.44L111.87,221.67L116.48,217.66L117.63,216.37L122.25,209.92L123.4,207.96L129.17,196.15L130.32,193.48L134.93,183.58L136.09,182.12L138.39,181.58L139.55,182.51L141.85,189.22L143,194.33L147.62,218.52L148.77,209.29L151.08,189.73L152.23,191.87L168.37,259.84L169.53,264.05L176.45,286.71L177.6,290.02L183.37,304.26L184.52,304.26L187.98,303.57L189.13,303.04L193.74,299.43L194.9,298.18L197.2,294.86L198.36,290.8L204.12,266.19L205.28,260.7L222.57,177.19L223.73,173.19L227.19,164.87L228.34,163.59L230.65,163.16L231.8,163.13L241.02,161.83L242.18,161.67L246.79,161.69L247.94,161.95L251.4,163.59L252.56,164.47L257.17,169.55L258.32,171.17L271.01,189.98L272.16,191L275.62,192.38L276.77,192.38L277.93,191.74L279.08,189.86L282.54,179.55L283.69,175.79L286,170.34L287.15,169.47L288.3,170.21L289.46,172.54L291.76,181.07L292.92,186.69L299.84,227.49L300.99,234.56L309.06,279.62L310.21,284.79L313.67,296.63L314.83,299.16L317.13,302.35L318.29,303.26L321.75,304.26L322.9,163.16L330.97,176.56L332.12,178.22L341.35,189.61L342.5,190.86L351.73,199.64L352.88,200.58L354.04,201.46L355.19,207.44L359.8,241.37L360.95,247.29L362.11,251.67L363.26,250.62L365.57,245.76L366.72,244.42L367.87,243.97L369.03,192.38L371.33,191.14L372.49,189.62L375.95,182.11L377.1,178.88L386.32,152.11L387.48,150.15L389.78,148.29L390.94,148.46L393.24,151.06L394.4,153.19L397.86,162.27L399.01,166.01L404.77,188.36L405.93,193.46L414,231.8" style="vector-effect: non-scaling-stroke; fill: none; stroke: rgb(0, 0, 0); stroke-opacity: 1; stroke-width: 1.5px; opacity: 1;"/></g><g class="points"/><g class="text"/></g><g class="trace scatter trace58d7c0" style="stroke-miterlimit: 2; opacity: 1;"><g class="fills"/><g class="errorbars"/><g class="lines"><path class="js-line" d="M0.01,152.65L1.16,152.12L2.32,150.63L5.78,142.36L6.93,138.85L11.54,122.99L12.7,121.86L17.31,135.41L18.46,139.45L24.23,163.06L25.38,168.31L35.76,217.39L36.91,217.44L54.21,218.24L55.36,218.47L64.59,221.18L65.74,221.61L70.35,223.34L71.51,222.91L74.97,222.79L76.12,223.11L79.58,225.03L80.73,225.94L85.35,229.72L86.5,230.16L92.27,231.78L93.42,231.04L95.72,229.43L96.88,227.08L99.18,223.61L100.34,223.08L101.49,223.87L102.64,226.06L106.1,224.9L107.26,224.36L108.41,223.77L109.56,218.3L117.63,166.54L118.79,159.07L123.4,133.05L124.55,128.21L126.86,120.51L128.01,125.27L133.78,147.08L134.93,149.99L137.24,152.65L138.39,152.65L140.7,154.12L141.85,155.91L145.31,164.79L146.46,168.66L152.23,191.86L153.38,196.91L168.37,259.82L169.53,264.04L176.45,286.7L177.6,290L183.37,304.26L184.52,304.26L187.98,303.57L189.13,303.04L193.74,299.43L194.9,298.18L197.2,294.86L198.36,290.8L204.12,266.19L205.28,260.7L222.57,177.19L223.73,173.19L227.19,164.87L228.34,163.59L230.65,163.16L231.8,163.13L241.02,161.83L242.18,161.67L246.79,161.69L247.94,161.95L251.4,163.59L252.56,164.47L257.17,169.55L258.32,171.17L271.01,189.98L272.16,191L275.62,192.38L276.77,192.38L277.93,191.74L279.08,189.86L282.54,179.55L283.69,175.79L286,170.34L287.15,169.47L288.3,170.21L289.46,172.54L291.76,181.07L292.92,186.69L299.84,227.49L300.99,234.56L309.06,279.62L310.21,284.79L313.67,296.63L314.83,299.16L317.13,302.35L318.29,303.26L321.75,304.26L322.9,163.16L333.28,144.68L334.43,143.31L336.74,141.58L337.89,141.29L340.2,141.91L341.35,142.84L343.66,146.04L344.81,148.44L347.12,155.44L348.27,160.3L351.73,180.8L352.88,189.26L355.19,202.31L356.34,203.1L363.26,208.24L364.41,210.99L366.72,216.59L367.87,217.47L369.03,192.38L370.18,192.07L372.49,189.62L373.64,187.55L377.1,178.88L378.25,175.42L386.32,152.11L387.48,150.15L389.78,148.28L390.94,148.46L393.24,150.94L394.4,153.09L397.86,162.26L399.01,166.01L404.77,188.36L405.93,193.45L414,231.78" style="vector-effect: non-scaling-stroke; fill: none; stroke: rgb(0, 0, 0); stroke-opacity: 1; stroke-width: 1.5px; opacity: 1;"/></g><g class="points"/><g class="text"/></g><g class="trace scatter trace5c038b" style="stroke-miterlimit: 2; opacity: 1;"><g class="fills"/><g class="errorbars"/><g class="lines"><path class="js-line" d="M0.01,152.64L1.16,152.1L2.32,150.54L5.78,141.72L6.93,137.92L13.85,114.37L15,112.59L25.38,166.46L26.53,171.48L31.15,188.11L32.3,191.31L35.76,198.64L36.91,200.43L40.37,204.14L41.53,204.9L44.99,205.86L46.14,205.86L50.75,204.98L51.9,204.5L56.52,201.65L57.67,200.74L64.59,194.09L65.74,192.84L83.04,174.1L84.19,173.21L88.81,170.76L89.96,170.5L93.42,170.78L94.57,171.93L96.88,176.41L98.03,179.45L101.49,187.1L102.64,187.53L103.8,186.63L104.95,184.68L108.41,175.2L109.56,171.39L117.63,141.25L118.79,136.61L124.55,109.37L125.71,114.82L132.63,143.23L133.78,146.9L136.09,151.92L137.24,152.64L139.55,153.01L140.7,154.11L143,158.33L144.16,161.31L148.77,177.35L149.92,182.04L151.08,186.9L152.23,179.59L159.15,121.68L160.3,114.53L162.61,105.37L163.76,103.56L164.92,103.2L166.07,103.77L170.68,107.01L171.83,106.81L174.14,104.36L175.29,102.03L177.6,95.15L178.75,90.66L183.37,66.74L184.52,66.74L186.83,66.08L187.98,65.28L191.44,61.12L192.59,59.22L197.2,49.71L198.36,47L212.2,15.28L213.35,17.92L219.11,37.39L220.27,40.57L223.73,48.25L224.88,50.1L227.19,52.62L228.34,53.26L232.95,54.38L234.11,55.48L237.56,60.65L238.72,62.79L249.1,81.72L250.25,83.15L253.71,86.09L254.86,86.61L258.32,86.87L259.48,86.58L264.09,84.1L265.24,83.27L272.16,78.58L273.31,78.11L276.77,77.71L277.93,78.16L280.23,81.64L281.39,84.41L286,94.91L287.15,95.35L288.3,94.27L289.46,91.68L292.92,77.42L294.07,71.5L299.84,43.6L300.99,40.06L303.3,36.89L304.45,37.21L306.76,40.52L307.91,42.99L315.98,61.53L317.13,63.35L320.59,66.52L321.75,66.74L322.9,53.47L324.05,54.49L327.51,56.43L328.67,56.72L333.28,56.49L334.43,61.91L355.19,163.06L356.34,169.05L363.26,202.12L364.41,204.46L366.72,205.76L367.87,205.86L369.03,77.71L370.18,82.27L379.4,115.38L380.56,119.04L387.48,138.4L388.63,141.19L394.4,153.09L395.55,155.2L401.32,163.31L402.47,164.56L407.08,168.32L408.23,168.96L412.85,170.36L414,170.41" style="vector-effect: non-scaling-stroke; fill: none; stroke: rgb(0, 0, 0); stroke-opacity: 1; stroke-width: 1.5px; opacity: 1;"/></g><g class="points"/><g class="text"/></g><g class="trace scatter trace2b576b" style="stroke-miterlimit: 2; opacity: 1;"><g class="fills"/><g class="errorbars"/><g class="lines"><path class="js-line" d="M0.01,106.65L2.32,107.14L3.47,107.75L6.93,111.08L8.08,112.7L11.54,119.16L12.7,115.43L13.85,110.44L15,109.92L29.99,51.21L31.15,52.77L35.76,57.58L36.91,58.45L41.53,60.72L42.68,61L49.6,62.24L50.75,62.99L56.52,68.46L57.67,69.68L63.44,74.79L64.59,75.46L68.05,76.46L69.2,76.43L72.66,75.1L73.81,74.27L78.43,69.26L79.58,67.71L86.5,59.26L87.65,58.5L91.11,57.63L92.27,57.63L95.72,59.11L96.88,59.78L100.34,61.13L101.49,61.24L104.95,60.44L106.1,59.79L110.72,56.8L111.87,57.69L114.18,65.66L115.33,70.99L119.94,89.97L121.09,93.58L125.71,114.15L126.86,119.53L132.63,109.27L133.78,108.12L136.09,106.81L137.24,106.65L138.39,106.65L139.55,105.77L141.85,99.4L143,94.58L148.77,64.55L149.92,58.33L155.69,29.76L156.84,27.51L158,26.26L159.15,29.89L160.3,31.98L161.46,32.17L162.61,30.21L163.76,26.07L168.37,2.9L169.53,1.4L170.68,0.75L171.83,1.38L172.99,3.76L174.14,8.07L177.6,28.62L178.75,36.47L183.37,66.74L184.52,66.74L186.83,66.08L187.98,65.28L191.44,61.12L192.59,59.22L197.2,49.71L198.36,47L212.2,15.28L213.35,17.92L219.11,37.39L220.27,40.57L223.73,48.25L224.88,50.1L227.19,52.62L228.34,53.26L232.95,54.38L234.11,55.48L237.56,60.65L238.72,62.79L249.1,81.72L250.25,83.15L253.71,86.09L254.86,86.61L258.32,86.87L259.48,86.58L264.09,84.1L265.24,83.27L272.16,78.58L273.31,78.11L276.77,77.71L277.93,78.16L280.23,81.64L281.39,84.41L286,94.91L287.15,95.35L288.3,94.27L289.46,91.68L292.92,77.42L294.07,71.5L299.84,43.6L300.99,40.06L303.3,36.89L304.45,37.21L306.76,40.52L307.91,42.99L315.98,61.53L317.13,63.35L320.59,66.52L321.75,66.74L322.9,53.47L324.05,52.25L327.51,47.39L328.67,45.36L329.82,43.13L330.97,45.68L333.28,56.18L334.43,55.65L335.58,55.04L336.74,55.94L337.89,55.97L339.04,55.18L341.35,51.2L342.5,48.33L344.81,45.26L345.96,50.2L349.42,66.55L350.58,69.2L351.73,70.5L352.88,70.55L355.19,67.61L356.34,64.91L359.8,53.3L360.95,48.53L362.11,46.76L363.26,51.74L365.57,58.77L366.72,60.6L367.87,61.23L369.03,77.71L379.4,35.64L380.56,36.47L385.17,51.61L386.32,54L388.63,56.44L389.78,56.37L392.09,55.03L393.24,64.85L396.7,88.55L397.86,93.31L400.16,97.21L401.32,96.67L403.62,92.03L404.77,88.49L412.85,58.8L414,57.63" style="vector-effect: non-scaling-stroke; fill: none; stroke: rgb(0, 0, 0); stroke-opacity: 1; stroke-width: 1.5px; opacity: 1;"/></g><g class="points"/><g class="text"/></g><g class="trace scatter trace9594f3" style="stroke-miterlimit: 2; opacity: 1;"><g class="fills"/><g class="errorbars"/><g class="lines"><path class="js-line" d="M0.01,106.63L8.08,106.25L9.24,105.93L12.7,104.2L13.85,106.55L15,105.32L16.16,100.09L21.92,82.34L23.07,77.68L34.61,34.31L35.76,30.8L40.37,19.93L41.53,18.2L43.83,16.19L44.99,15.93L49.6,15.46L50.75,15.1L54.21,14.41L55.36,14.79L63.44,18.39L64.59,18.99L68.05,21.61L69.2,22.78L78.43,31.37L79.58,32.08L83.04,33.06L84.19,32.83L86.5,31.22L87.65,29.79L88.81,28.44L89.96,28.51L93.42,28.44L94.57,31.87L96.88,36.02L98.03,36.44L99.18,35.87L100.34,34.45L103.8,26.6L104.95,24.39L107.26,28.61L108.41,32.11L113.02,51.76L114.18,57.41L124.55,108.64L125.71,103.02L129.17,105.83L130.32,106.24L134.93,106.65L136.09,106.64L138.39,106.63L139.55,105.76L141.85,99.39L143,94.57L148.77,64.54L149.92,58.32L156.84,23.85L158,25.16L167.22,4.92L168.37,-2.76L175.29,-39.66L176.45,-40.07L185.67,-49.02L186.83,-48.65L194.9,-42.9L196.05,-41.98L198.36,-40.18L199.51,-37L209.89,4.37L211.04,8.98L212.2,13.51L213.35,13.25L217.96,6.82L219.11,5.8L221.42,4.98L222.57,5.53L226.03,10.47L227.19,12.03L229.49,13.39L230.65,13.39L238.72,12.62L239.87,12.44L258.32,10.05L259.48,10.14L265.24,11.44L266.39,11.86L275.62,14.72L276.77,14.72L277.93,14.37L279.08,13.21L281.39,8.41L282.54,4.93L288.3,-15.28L289.46,-14.54L299.84,-6.84L300.99,-7.43L303.3,-11.48L304.45,-14.89L313.67,-43.15L314.83,-44.58L320.59,-48.98L321.75,-49.15L322.9,13.39L324.05,16.04L328.67,35.07L329.82,40.34L334.43,53.33L335.58,54.98L340.2,51.01L341.35,49.72L342.5,48.15L343.66,44.49L344.81,42.49L345.96,43.59L356.34,26.78L357.49,24.99L358.65,27.64L359.8,34.57L362.11,43.4L363.26,38L367.87,15.93L369.03,14.72L373.64,15.59L374.79,16.93L377.1,22.98L378.25,27.28L384.02,48.54L385.17,51.6L387.48,55.63L388.63,56.43L389.78,56.36L390.94,55.42L393.24,51.21L394.4,48.15L403.62,20.69L404.77,19.51L407.08,19.44L408.23,20.14L410.54,21.87L411.69,24.2L414,28.54" style="vector-effect: non-scaling-stroke; fill: none; stroke: rgb(0, 0, 0); stroke-opacity: 1; stroke-width: 1.5px; opacity: 1;"/></g><g class="points"/><g class="text"/></g><g class="trace scatter trace91e362" style="stroke-miterlimit: 2; opacity: 1;"><g class="fills"/><g class="errorbars"/><g class="lines"><path class="js-line" d="M0.01,47.04L1.16,47.83L2.32,50.1L4.62,57.96L5.78,62.99L13.85,101.77L15,100.64L16.16,98.84L17.31,94.76L27.69,47.61L28.84,49.49L29.99,49.07L31.15,43.46L36.91,18.55L38.07,15.7L40.37,13.82L41.53,14.16L44.99,15.34L46.14,15.34L51.9,14.48L53.06,14.09L58.82,14.73L59.98,15.22L64.59,18.38L65.74,19.4L71.51,22.65L72.66,23.24L81.89,27.09L83.04,27.42L87.65,28.32L88.81,27.95L91.11,23.17L92.27,23.17L93.42,28.06L94.57,28.16L99.18,25.56L100.34,24.76L102.64,23.64L103.8,23.66L104.95,23.26L106.1,19.77L107.26,17.25L108.41,24.7L111.87,42.13L113.02,47.86L122.25,96.68L123.4,99.26L125.71,102.05L126.86,95L133.78,55.51L134.93,51.06L137.24,47.04L138.39,47.04L141.85,46.31L143,45.76L146.46,43.14L147.62,41.97L152.23,35.79L153.38,33.9L155.69,29.17L156.84,23.84L167.22,-17.3L168.37,-21.33L177.6,-47.81L178.75,-49.48L182.21,-50.08L183.37,-49.15L187.98,-48.08L189.13,-47.36L198.36,-40.18L199.51,-37L209.89,4.37L211.04,8.98L212.2,13.51L213.35,13.25L217.96,6.82L219.11,5.8L221.42,4.98L222.57,5.53L226.03,10.47L227.19,12.03L229.49,13.39L230.65,13.39L238.72,12.62L239.87,12.44L258.32,10.05L259.48,10.14L265.24,11.44L266.39,11.86L275.62,14.72L276.77,14.72L277.93,14.37L279.08,13.21L281.39,8.41L282.54,4.93L288.3,-15.28L289.46,-14.54L299.84,-6.84L300.99,-7.43L303.3,-11.48L304.45,-14.89L313.67,-43.15L314.83,-44.58L320.59,-48.98L321.75,-49.15L322.9,13.39L324.05,14.02L326.36,23.37L327.51,28.91L329.82,39.2L330.97,40.69L335.58,28.98L336.74,25.59L340.2,14.5L341.35,15.31L344.81,40.13L345.96,35.55L351.73,7.13L352.88,0.87L354.04,-1.29L355.19,5.6L358.65,23.3L359.8,21.72L364.41,17.06L365.57,16.43L370.18,14.75L371.33,14.8L373.64,15.59L374.79,16.92L377.1,22.98L378.25,27.27L379.4,31.87L380.56,31.31L384.02,20.7L385.17,18.86L386.32,18.83L387.48,21.48L389.78,35.45L390.94,45.03L392.09,53.67L393.24,51.21L396.7,40.8L397.86,36.82L402.47,22.75L403.62,20.69L405.93,19.15L407.08,19.44L414,23.17" style="vector-effect: non-scaling-stroke; fill: none; stroke: rgb(0, 0, 0); stroke-opacity: 1; stroke-width: 1.5px; opacity: 1;"/></g><g class="points"/><g class="text"/></g><g class="trace scatter trace7d7fe6" style="stroke-miterlimit: 2; opacity: 1;"><g class="fills"/><g class="errorbars"/><g class="lines"><path class="js-line" d="M0.01,-10.2L3.47,-9.09L4.62,-8.15L8.08,-3.22L9.24,-0.8L13.85,11.91L15,15.49L23.07,38.3L24.23,40.9L26.53,45.55L27.69,44.35L32.3,24.59L33.45,20.87L35.76,15.75L36.91,14.34L39.22,13.11L40.37,12.98L50.75,13.55L51.9,13.79L53.06,14.08L54.21,13.43L58.82,9.82L59.98,8.68L65.74,1.67L66.9,0.02L76.12,-15.79L77.27,-18.02L78.43,-17.7L79.58,-13.43L87.65,14.01L88.81,17.28L91.11,23.16L92.27,23.16L100.34,-17.48L101.49,-12.42L108.41,22.54L109.56,28.81L113.02,43.63L114.18,42.89L116.48,38.5L117.63,35.6L123.4,17.77L124.55,13.9L130.32,-3.18L131.47,-5.51L134.93,-9.55L136.09,-10.05L139.55,-10.64L140.7,-11.94L144.16,-20.42L145.31,-24.51L147.62,-33.01L148.77,-25.73L156.84,21.49L158,18.69L168.37,-21.34L169.53,-25.29L183.37,-68.24L184.52,-68.24L187.98,-66.35L189.13,-64.89L194.9,-52.2L196.05,-48.74L200.66,-38.45L201.82,-37.6L213.35,-27.93L214.5,-26.31L217.96,-19.34L219.11,-16.32L222.57,-7.95L223.73,-6.44L226.03,-5.36L227.19,-5.26L232.95,-5.8L234.11,-6.44L246.79,-15.1L247.94,-15.52L264.09,-19.62L265.24,-19.94L276.77,-21.91L277.93,-21.78L282.54,-19.61L283.69,-18.87L287.15,-16.72L288.3,-19.42L297.53,-56.07L298.68,-54.99L305.6,-48.15L306.76,-47.91L310.21,-49.58L311.37,-51.24L320.59,-67.96L321.75,-68.24L322.9,-5.25L324.05,-3.57L326.36,-8.72L327.51,-12.36L330.97,-19.79L332.12,-17.22L339.04,-2.76L340.2,6.07L341.35,10.55L342.5,6.53L343.66,2.48L344.81,1.96L347.12,2.59L348.27,2.5L350.58,1.53L351.73,0.63L355.19,-3.64L356.34,-5.56L362.11,-17.28L363.26,-11.14L367.87,13.13L369.03,-21.91L370.18,-20.28L371.33,-16.4L374.79,-3.47L375.95,-1.13L377.1,-0.25L378.25,-0.5L380.56,-3.04L381.71,-4.96L387.48,-18.43L388.63,-21.63L396.7,-24L397.86,-23L400.16,-19.08L401.32,-16.17L404.77,-4.43L405.93,0.23L411.69,22.56L412.85,23.01L414,23.16" style="vector-effect: non-scaling-stroke; fill: none; stroke: rgb(0, 0, 0); stroke-opacity: 1; stroke-width: 1.5px; opacity: 1;"/></g><g class="points"/><g class="text"/></g><g class="trace scatter trace9c2b6c" style="stroke-miterlimit: 2; opacity: 1;"><g class="fills"/><g class="errorbars"/><g class="lines"><path class="js-line" d="M0.01,-10.21L1.16,-10.88L2.32,-12.78L10.39,-31.61L11.54,-32.17L16.16,-31.19L17.31,-30.73L29.99,-26.01L31.15,-24.82L38.07,-14.85L39.22,-15.52L42.68,-23.11L43.83,-26.02L46.14,-27.8L47.29,-27.84L54.21,-29.76L55.36,-30.34L65.74,-37.98L66.9,-38.81L70.35,-39.58L71.51,-38.54L74.97,-30.06L76.12,-26.11L78.43,-20.3L79.58,-22.61L88.81,-38.73L89.96,-39.48L93.42,-38.9L94.57,-36.85L99.18,-22.21L100.34,-20.39L101.49,-18.48L102.64,-12.86L107.26,16.23L108.41,12.73L115.33,-5.29L116.48,-7.82L128.01,-31.3L129.17,-30.73L131.47,-25.19L132.63,-21.18L136.09,-11.1L137.24,-10.21L139.55,-10.65L140.7,-11.95L144.16,-20.43L145.31,-24.52L163.76,-94.2L164.92,-95.41L166.07,-92.54L167.22,-82.1L172.99,-43.2L174.14,-40.53L184.52,-68.24L185.67,-68.03L189.13,-64.89L190.28,-63.04L196.05,-48.74L197.2,-45.04L200.66,-38.45L201.82,-37.6L213.35,-27.93L214.5,-26.31L217.96,-19.34L219.11,-16.32L222.57,-7.95L223.73,-6.44L226.03,-5.36L227.19,-5.26L232.95,-5.8L234.11,-6.44L246.79,-15.1L247.94,-15.52L264.09,-19.62L265.24,-19.94L276.77,-21.91L277.93,-21.78L282.54,-19.61L283.69,-18.87L287.15,-16.72L288.3,-19.42L297.53,-56.07L298.68,-54.99L305.6,-48.15L306.76,-47.91L310.21,-49.58L311.37,-51.24L320.59,-67.96L321.75,-68.24L322.9,-5.25L324.05,-10.32L327.51,-26.11L328.67,-24.69L330.97,-22.03L332.12,-24.17L334.43,-24.87L335.58,-22.32L337.89,-10.79L339.04,-3.93L342.5,0.31L343.66,1.26L349.42,-13.56L350.58,-13.65L351.73,-11.51L352.88,-7.21L354.04,-5.37L355.19,-11.45L358.65,-25.51L359.8,-26.84L362.11,-18.07L363.26,-20.84L366.72,-27.23L367.87,-27.8L370.18,-20.28L371.33,-16.4L374.79,-3.47L375.95,-1.13L377.1,-0.25L378.25,-0.5L380.56,-3.04L381.71,-4.96L387.48,-18.43L388.63,-21.63L395.55,-38.27L396.7,-38.95L399.01,-37.28L400.16,-35.56L403.62,-32.49L404.77,-33.33L408.23,-41.59L409.39,-40.91L410.54,-40.39L414,-39.72" style="vector-effect: non-scaling-stroke; fill: none; stroke: rgb(0, 0, 0); stroke-opacity: 1; stroke-width: 1.5px; opacity: 1;"/></g><g class="points"/><g class="text"/></g><g class="trace scatter tracee8a1dd" style="stroke-miterlimit: 2; opacity: 1;"><g class="fills"/><g class="errorbars"/><g class="lines"><path class="js-line" d="M0.01,-72.62L3.47,-70.05L4.62,-68.81L15,-62.59L16.16,-63.07L18.46,-62.43L19.62,-57.96L27.69,-32.43L28.84,-30L32.3,-26.12L33.45,-26.42L35.76,-30.01L36.91,-33.3L39.22,-39.71L40.37,-38.12L46.14,-30.85L47.29,-30.91L51.9,-32.48L53.06,-33.27L58.82,-40.23L59.98,-42.24L69.2,-60.29L70.35,-60.07L88.81,-56.62L89.96,-57.69L92.27,-59.24L93.42,-55.59L104.95,-17.53L106.1,-16.26L108.41,-16.99L109.56,-18.8L114.18,-31.91L115.33,-36.17L124.55,-75.97L125.71,-73.01L126.86,-70.53L130.32,-66.9L131.47,-67.13L138.39,-72.62L139.55,-71.68L143,-59.59L144.16,-53.59L147.62,-34.02L148.77,-39.24L162.61,-92.46L163.76,-94.2L168.37,-96.19L169.53,-95.59L175.29,-87.75L176.45,-85.42L184.52,-68.24L185.67,-68.47L190.28,-73.3L191.44,-75.26L205.28,-103.23L206.43,-101.34L212.2,-75.84L213.35,-70.08L219.11,-48.13L220.27,-45.69L224.88,-40.56L226.03,-40L231.8,-39.47L232.95,-39.89L237.56,-44.47L238.72,-46.36L246.79,-66.25L247.94,-69.57L252.56,-77.93L253.71,-76.8L271.01,-50.18L272.16,-49.44L276.77,-48.51L277.93,-48.9L281.39,-53.88L282.54,-56.38L290.61,-71.36L291.76,-71.09L296.38,-68.76L297.53,-72.26L304.45,-97.67L305.6,-97.39L306.76,-95.83L320.59,-68.54L321.75,-68.24L324.05,-37.09L325.21,-34.9L326.36,-33.46L327.51,-36.06L330.97,-47.7L332.12,-47L337.89,-43.31L339.04,-43.49L344.81,-43.06L345.96,-42.64L356.34,-37.11L357.49,-35.73L360.95,-29.96L362.11,-30.44L367.87,-30.85L369.03,-48.51L371.33,-54.81L372.49,-60.64L379.4,-98.67L380.56,-95.29L381.71,-82.22L387.48,-27.26L388.63,-23.33L390.94,-28.16L392.09,-31.31L396.7,-38.95L397.86,-38.55L403.62,-32.49L404.77,-33.33L408.23,-42L409.39,-46.19L414,-59.24" style="vector-effect: non-scaling-stroke; fill: none; stroke: rgb(0, 0, 0); stroke-opacity: 1; stroke-width: 1.5px; opacity: 1;"/></g><g class="points"/><g class="text"/></g><g class="trace scatter trace239e9f" style="stroke-miterlimit: 2; opacity: 1;"><g class="fills"/><g class="errorbars"/><g class="lines"><path class="js-line" d="M0.01,-107.09L8.08,-70.65L9.24,-70.43L12.7,-82.12L13.85,-81.53L15,-76.6L18.46,-65.08L19.62,-66.52L26.53,-79.09L27.69,-73.52L34.61,-47.13L35.76,-44.8L38.07,-41.26L39.22,-42.04L40.37,-47.03L44.99,-61.89L46.14,-61.89L68.05,-60.77L69.2,-63.85L74.97,-59.05L76.12,-59.98L83.04,-70.02L84.19,-68.84L85.35,-67.39L92.27,-59.24L93.42,-63.54L94.57,-68.89L95.72,-67.81L96.88,-61.05L100.34,-45.6L101.49,-47.75L113.02,-102.91L114.18,-103.02L116.48,-100.51L117.63,-97.58L128.01,-70.64L129.17,-70.33L131.47,-75.59L132.63,-80.47L139.55,-107.16L140.7,-107.39L148.77,-113.13L149.92,-114.54L160.3,-133.99L161.46,-136.9L166.07,-96.13L167.22,-96.37L168.37,-96.19L172.99,-91.72L174.14,-89.85L182.21,-71.41L183.37,-68.24L187.98,-70.2L189.13,-71.6L197.2,-87.96L198.36,-90.9L205.28,-103.23L206.43,-101.34L212.2,-75.84L213.35,-70.08L219.11,-48.13L220.27,-45.69L224.88,-40.56L226.03,-40L231.8,-39.47L232.95,-39.89L237.56,-44.47L238.72,-46.36L246.79,-66.25L247.94,-69.57L252.56,-77.93L253.71,-76.8L271.01,-50.18L272.16,-49.44L276.77,-48.51L277.93,-48.9L281.39,-53.88L282.54,-56.38L290.61,-71.37L291.76,-71.09L296.38,-68.76L297.53,-72.26L304.45,-97.67L305.6,-97.39L306.76,-95.83L320.59,-68.55L321.75,-68.24L322.9,-39.33L324.05,-41.47L325.21,-43.42L329.82,-51.6L330.97,-60.43L337.89,-115.54L340.2,-111.48L341.35,-109.94L344.81,-95.35L345.96,-88.5L351.73,-62.7L352.88,-63.17L355.19,-65.68L356.34,-61.06L358.65,-56.99L359.8,-59.02L363.26,-72.32L364.41,-68.21L367.87,-61.89L369.03,-48.51L371.33,-54.81L372.49,-60.64L379.4,-99.84L380.56,-96.16L381.71,-91.96L395.55,-58.12L396.7,-55.97L404.77,-44.45L405.93,-43.35L408.23,-42L409.39,-46.19L414,-59.24" style="vector-effect: non-scaling-stroke; fill: none; stroke: rgb(0, 0, 0); stroke-opacity: 1; stroke-width: 1.5px; opacity: 1;"/></g><g class="points"/><g class="text"/></g><g class="trace scatter trace51ba70" style="stroke-miterlimit: 2; opacity: 1;"><g class="fills"/><g class="errorbars"/><g class="lines"><path class="js-line" d="M0.01,-108.33L3.47,-113.39L4.62,-116.56L5.78,-116.26L6.93,-111.59L12.7,-86.53L13.85,-87.22L15,-92.41L19.62,-103.82L20.77,-102.05L26.53,-79.41L27.69,-82.11L28.84,-84.94L39.22,-114.57L40.37,-108L46.14,-90.68L47.29,-90.65L59.98,-87.58L61.13,-87.08L64.59,-83.98L65.74,-79.18L69.2,-66.14L70.35,-67L71.51,-70.19L74.97,-78.39L76.12,-77.39L77.27,-76.33L83.04,-70.23L84.19,-72.02L85.35,-74.09L92.27,-84.99L93.42,-80.04L94.57,-74.23L95.72,-74.85L96.88,-81.21L101.49,-109L103.8,-105.63L104.95,-104.11L110.72,-102.24L111.87,-102.59L115.33,-102.78L116.48,-102.02L121.09,-92.51L122.25,-88.67L124.55,-80.23L125.71,-83.64L126.86,-89.5L132.63,-117.96L133.78,-114.87L134.93,-111.51L139.55,-108.53L140.7,-109.11L146.46,-117.65L147.62,-120.38L159.15,-152.72L160.3,-148.54L161.46,-137.05L184.52,-201.09L185.67,-200.22L186.83,-197.95L201.82,-147.77L202.97,-143.07L209.89,-130.72L211.04,-128.37L222.57,-112.62L223.73,-111.84L241.02,-102.37L242.18,-100.73L251.4,-87.48L252.56,-88.55L253.71,-91L271.01,-127.86L272.16,-128.66L277.93,-129.26L279.08,-128.14L287.15,-110.75L288.3,-108.7L291.76,-107.64L292.92,-109.18L306.76,-136.58L307.91,-142.48L321.75,-201.09L322.9,-110.04L330.97,-113.75L332.12,-114.6L337.89,-116.44L339.04,-115.48L347.12,-98.77L348.27,-95.12L355.19,-69.17L356.34,-73.64L359.8,-87.47L360.95,-82.08L363.26,-74.39L364.41,-80.19L367.87,-90.68L369.03,-129.67L379.4,-99.84L380.56,-105.49L385.17,-118.81L386.32,-118.54L387.48,-116.63L397.86,-86.1L399.01,-87.62L405.93,-110.55L407.08,-109.46L408.23,-105.03L414,-84.99" style="vector-effect: non-scaling-stroke; fill: none; stroke: rgb(0, 0, 0); stroke-opacity: 1; stroke-width: 1.5px; opacity: 1;"/></g><g class="points"/><g class="text"/></g><g class="trace scatter trace43beec" style="stroke-miterlimit: 2; opacity: 1;"><g class="fills"/><g class="errorbars"/><g class="lines"><path class="js-line" d="M0.01,-108.34L3.47,-124.41L4.62,-120.59L5.78,-119.94L13.85,-132.9L15,-132.6L18.46,-133.74L19.62,-136.83L25.38,-163.26L27.69,-158.65L28.84,-156.23L35.76,-135.42L36.91,-128.35L39.22,-114.86L40.37,-118.43L41.53,-121.9L46.14,-128.56L47.29,-126.86L58.82,-108.68L59.98,-103.77L66.9,-84.12L68.05,-83.43L74.97,-79.71L76.12,-82.73L83.04,-93.25L84.19,-93.17L88.81,-88.96L89.96,-87.12L92.27,-85L93.42,-89.52L110.72,-144.22L111.87,-144.78L121.09,-145.22L122.25,-144.4L128.01,-134.32L129.17,-130.88L132.63,-118.8L133.78,-122.72L134.93,-123.63L138.39,-108.34L139.55,-108.54L140.7,-109.12L146.46,-117.66L147.62,-120.39L176.45,-185.47L177.6,-187.91L184.52,-201.09L186.83,-197.95L187.98,-194.89L211.04,-128.37L212.2,-126.16L222.57,-112.62L223.73,-111.84L241.02,-102.37L242.18,-100.73L251.4,-87.48L252.56,-88.55L253.71,-91L271.01,-127.86L272.16,-128.66L277.93,-129.26L279.08,-128.14L287.15,-110.75L288.3,-108.7L291.76,-107.64L292.92,-109.18L306.76,-136.58L307.91,-142.48L321.75,-201.09L322.9,-110.04L328.67,-112.74L329.82,-113.96L335.58,-122.7L336.74,-118.6L337.89,-117.77L339.04,-127.61L345.96,-153.72L347.12,-149.44L359.8,-89.58L360.95,-95.3L373.64,-141.09L374.79,-142.64L375.95,-141.89L377.1,-135.6L380.56,-105.49L381.71,-110.47L382.86,-114.54L386.32,-118.54L387.48,-116.63L397.86,-86.11L399.01,-87.63L405.93,-110.55L407.08,-109.47L408.23,-105.04L414,-85" style="vector-effect: non-scaling-stroke; fill: none; stroke: rgb(0, 0, 0); stroke-opacity: 1; stroke-width: 1.5px; opacity: 1;"/></g><g class="points"/><g class="text"/></g><g class="trace scatter trace35f861" style="stroke-miterlimit: 2; opacity: 1;"><g class="fills"/><g class="errorbars"/><g class="lines"><path class="js-line" d="M0.01,-130.22L3.47,-128.47L4.62,-135.43L15,-178.33L16.16,-177.13L24.23,-165.41L25.38,-166.73L26.53,-173.17L27.69,-178.32L29.99,-171.46L31.15,-164.23L39.22,-135.17L40.37,-133.58L46.14,-129.28L47.29,-130.64L48.44,-130.86L53.06,-131.42L54.21,-127.27L61.13,-111.98L62.28,-111.37L74.97,-108.54L76.12,-108.75L80.73,-112.51L81.89,-114.6L92.27,-140.48L93.42,-135.71L99.18,-115.94L100.34,-116.75L101.49,-120.84L116.48,-161.98L117.63,-164L124.55,-168.81L125.71,-167.86L130.32,-153.55L131.47,-146.93L134.93,-126.63L137.24,-130.22L138.39,-130.22L141.85,-135.48L143,-138.76L158,-171.59L159.15,-160.06L160.3,-155.3L162.61,-159.93L163.76,-162.08L178.75,-198.48L179.91,-203.78L181.06,-206.82L183.37,-201.1L184.52,-201.1L189.13,-196.26L190.28,-193.63L199.51,-158.25L200.66,-154.26L207.58,-138.04L208.74,-140.73L209.89,-144.23L228.34,-194.29L229.49,-194.49L239.87,-198.77L241.02,-199.8L264.09,-229.1L265.24,-230.96L276.77,-245.04L277.93,-243.73L279.08,-240.47L300.99,-157.06L302.14,-157.9L303.3,-159.59L321.75,-201.1L322.9,-194.49L327.51,-175.59L328.67,-167.66L335.58,-123.72L336.74,-126.38L337.89,-129.26L341.35,-146.46L342.5,-154.1L351.73,-169.82L352.88,-170.34L357.49,-162.13L358.65,-159.14L367.87,-129.28L369.03,-245.04L371.33,-224.22L372.49,-208.48L378.25,-158.26L379.4,-158.78L380.56,-159.67L386.32,-160.39L387.48,-159.38L401.32,-141.06L402.47,-135.92L405.93,-121.95L407.08,-122.46L408.23,-126.17L414,-140.48" style="vector-effect: non-scaling-stroke; fill: none; stroke: rgb(0, 0, 0); stroke-opacity: 1; stroke-width: 1.5px; opacity: 1;"/></g><g class="points"/><g class="text"/></g><g class="trace scatter traced213c3" style="stroke-miterlimit: 2; opacity: 1;"><g class="fills"/><g class="errorbars"/><g class="lines"><path class="js-line" d="M0.01,-185.13L12.7,-180.37L13.85,-179.4L23.07,-201.36L24.23,-199.81L25.38,-194.16L41.53,-132.86L42.68,-131.36L47.29,-131.11L48.44,-133.39L50.75,-138.33L51.9,-135.23L53.06,-133.15L63.44,-145.22L64.59,-147.02L77.27,-170.82L79.58,-166.8L80.73,-164.04L92.27,-140.48L93.42,-142.2L94.57,-141.01L101.49,-139.11L102.64,-139.58L106.1,-141.5L107.26,-146.76L115.33,-172.43L116.48,-173.29L138.39,-185.13L139.55,-185.19L148.77,-190.96L149.92,-192.78L154.54,-204.88L155.69,-194.52L158,-171.62L161.46,-174.4L162.61,-175.19L170.68,-186.03L171.83,-189.53L177.6,-215.75L179.91,-209.75L181.06,-206.82L198.36,-163.57L199.51,-158.25L207.58,-138.04L208.74,-140.73L229.49,-194.49L230.65,-194.49L241.02,-199.8L242.18,-200.91L266.39,-232.88L267.55,-234.83L276.77,-245.04L277.93,-243.73L279.08,-240.47L300.99,-157.06L302.14,-157.9L303.3,-159.59L321.75,-201.1L322.9,-194.49L329.82,-196.77L330.97,-195.92L339.04,-182.66L340.2,-180.01L348.27,-173.14L349.42,-172.48L357.49,-165.01L358.65,-162.64L366.72,-134.91L367.87,-130.56L369.03,-245.04L373.64,-232.17L374.79,-226.83L389.78,-170.35L390.94,-169.57L396.7,-158.7L397.86,-154.89L405.93,-121.95L407.08,-122.46L408.23,-126.18L414,-140.48" style="vector-effect: non-scaling-stroke; fill: none; stroke: rgb(0, 0, 0); stroke-opacity: 1; stroke-width: 1.5px; opacity: 1;"/></g><g class="points"/><g class="text"/></g><g class="trace scatter tracee814b4" style="stroke-miterlimit: 2; opacity: 1;"><g class="fills"/><g class="errorbars"/><g class="lines"><path class="js-line" d="M0.01,-185.13L5.78,-194.63L6.93,-196.35L13.85,-221L15,-226.82L17.31,-233.25L19.62,-225.4L20.77,-218.62L27.69,-185.91L29.99,-192.8L31.15,-194.05L46.14,-145.44L47.29,-144.98L50.75,-138.62L51.9,-140.98L53.06,-143.73L72.66,-181.84L73.81,-180.67L89.96,-150.26L91.11,-149.6L93.42,-153.29L94.57,-160.86L98.03,-180.73L100.34,-175.61L101.49,-173.71L109.56,-169.7L110.72,-171.21L121.09,-236.92L123.4,-230.29L124.55,-224.71L136.09,-186.16L137.24,-185.13L147.62,-189.48L148.77,-190.96L156.84,-212.13L158,-215.6L167.22,-238.86L169.53,-235.8L170.68,-233.39L181.06,-209.23L182.21,-214.83L183.37,-220.58L186.83,-223.82L187.98,-227.01L206.43,-280.81L208.74,-279.43L209.89,-278.47L227.19,-270.45L228.34,-270.57L247.94,-265.23L249.1,-264.62L277.93,-256.32L279.08,-256.35L309.06,-255.58L310.21,-254.09L318.29,-228.61L319.44,-224.74L321.75,-220.58L322.9,-270.61L330.97,-241.91L332.12,-242.25L333.28,-242.69L335.58,-237.45L336.74,-226.67L343.66,-181L344.81,-185.63L345.96,-194.26L347.12,-203.3L350.58,-194.66L351.73,-191.62L367.87,-145.44L369.03,-256.3L378.25,-209.03L379.4,-202.84L389.78,-170.35L390.94,-169.57L396.7,-158.7L397.86,-154.89L402.47,-144.64L403.62,-145.12L404.77,-145.74L414,-149.6" style="vector-effect: non-scaling-stroke; fill: none; stroke: rgb(0, 0, 0); stroke-opacity: 1; stroke-width: 1.5px; opacity: 1;"/></g><g class="points"/><g class="text"/></g><g class="trace scatter traceb64d58" style="stroke-miterlimit: 2; opacity: 1;"><g class="fills"/><g class="errorbars"/><g class="lines"><path class="js-line" d="M0.01,-191.55L5.78,-196.08L6.93,-198.28L17.31,-236.62L19.62,-234.32L20.77,-228.19L29.99,-198.79L31.15,-197.77L38.07,-209.17L39.22,-208.68L40.37,-208.03L49.6,-208.36L50.75,-209.5L57.67,-211.1L58.82,-210.07L69.2,-191.41L70.35,-188.79L78.43,-173.75L79.58,-175.72L80.73,-178.23L92.27,-201.98L93.42,-196.74L94.57,-191.99L96.88,-183.98L98.03,-186.59L99.18,-195.39L103.8,-224.68L106.1,-218.63L107.26,-214.12L111.87,-205.58L113.02,-207.12L114.18,-210.2L122.25,-246.09L123.4,-240.1L124.55,-231.89L133.78,-193.31L134.93,-192.12L144.16,-193.04L145.31,-193.72L154.54,-205.85L155.69,-209L167.22,-238.87L169.53,-235.8L170.68,-233.39L176.45,-218.77L177.6,-220.29L178.75,-229.2L179.91,-238.75L182.21,-226.5L183.37,-220.58L186.83,-223.82L187.98,-227.01L206.43,-280.81L208.74,-279.43L209.89,-278.47L227.19,-270.45L228.34,-270.57L247.94,-265.23L249.1,-264.62L277.93,-256.32L279.08,-256.35L309.06,-255.58L310.21,-254.09L318.29,-228.61L319.44,-224.74L321.75,-220.58L322.9,-270.61L327.51,-307.26L330.97,-282.63L332.12,-271.37L342.5,-219.42L343.66,-215.07L347.12,-203.86L348.27,-211.99L349.42,-214.73L352.88,-208.3L355.19,-211.63L356.34,-214.93L357.49,-218.81L359.8,-214.16L360.95,-212.13L367.87,-206.39L369.03,-256.3L377.1,-274.37L378.25,-273.81L390.94,-254.54L392.09,-255.01L400.16,-240.61L401.32,-237.56L414,-201.98" style="vector-effect: non-scaling-stroke; fill: none; stroke: rgb(0, 0, 0); stroke-opacity: 1; stroke-width: 1.5px; opacity: 1;"/></g><g class="points"/><g class="text"/></g><g class="trace scatter trace473054" style="stroke-miterlimit: 2; opacity: 1;"><g class="fills"/><g class="errorbars"/><g class="lines"><path class="js-line" d="M0.01,-191.55L4.62,-195.67L5.78,-200.52L16.16,-252.39L18.46,-241.6L19.62,-234.97L27.69,-215.29L29.99,-219.78L31.15,-222.55L46.14,-246.06L47.29,-246.17L54.21,-253.67L55.36,-256.51L59.98,-271.84L63.44,-264.3L64.59,-261.59L83.04,-223.89L84.19,-220.44L92.27,-201.99L93.42,-207.51L94.57,-213.09L108.41,-270.22L109.56,-265.33L110.72,-259.47L117.63,-241.55L118.79,-242.48L119.94,-244.45L123.4,-252.48L124.55,-245.59L125.71,-238.6L137.24,-191.55L138.39,-191.55L148.77,-196.73L149.92,-198.12L156.84,-214.82L158,-220.92L169.53,-294.22L171.83,-286.37L172.99,-279.09L179.91,-238.88L182.21,-260.11L183.37,-271.42L197.2,-278.08L198.36,-278.89L204.12,-287.36L205.28,-291.7L223.73,-333.38L224.88,-333.86L234.11,-330.6L235.26,-328.42L276.77,-264.38L277.93,-265.51L302.14,-308.63L303.3,-308L304.45,-305.64L320.59,-271.53L321.75,-271.42L322.9,-334.94L328.67,-308.48L329.82,-301.91L348.27,-219.17L349.42,-219.63L350.58,-225.28L352.88,-228.23L355.19,-224.28L356.34,-221.62L357.49,-218.96L359.8,-227.26L360.95,-231.43L378.25,-274.85L379.4,-274.89L387.48,-265.47L388.63,-263.33L407.08,-218.87L408.23,-214.82L414,-201.99" style="vector-effect: non-scaling-stroke; fill: none; stroke: rgb(0, 0, 0); stroke-opacity: 1; stroke-width: 1.5px; opacity: 1;"/></g><g class="points"/><g class="text"/></g><g class="trace scatter tracec24359" style="stroke-miterlimit: 2; opacity: 1;"><g class="fills"/><g class="errorbars"/><g class="lines"><path class="js-line" d="M0.01,-309.75L6.93,-297.3L8.08,-293.2L17.31,-248.02L19.62,-259.82L20.77,-267.59L26.53,-290.85L28.84,-286.01L29.99,-283.11L34.61,-278.83L36.91,-282.87L38.07,-285.97L47.29,-299.82L48.44,-299.01L49.6,-297.71L59.98,-273.41L62.28,-281L63.44,-285.98L64.59,-289.31L66.9,-280.17L68.05,-275.77L73.81,-254.81L77.27,-260.87L78.43,-263.56L92.27,-287.65L93.42,-286.54L94.57,-283.47L101.49,-248.1L103.8,-258.82L104.95,-264.31L114.18,-289.68L115.33,-288.24L116.48,-285.57L123.4,-255.91L124.55,-263L125.71,-269.83L138.39,-309.75L139.55,-308.99L140.7,-306.74L147.62,-268.15L148.77,-258.79L154.54,-206.21L158,-220.93L159.15,-227.78L176.45,-337.02L178.75,-319.15L179.91,-307.06L185.67,-271.51L189.13,-272.6L190.28,-273.21L204.12,-287.36L205.28,-291.7L223.73,-336.99L224.88,-334.06L234.11,-330.92L235.26,-328.53L276.77,-264.38L277.93,-265.51L279.08,-268.1L302.14,-308.64L303.3,-308.07L321.75,-271.42L322.9,-335.41L332.12,-307.28L333.28,-301.04L337.89,-274.67L342.5,-282.08L343.66,-284.51L344.81,-286.72L347.12,-279.21L348.27,-274L350.58,-269.92L352.88,-278.3L354.04,-286.26L362.11,-299.27L363.26,-299.55L367.87,-300.09L369.03,-264.39L372.49,-292.66L375.95,-281.03L377.1,-277.35L393.24,-255.79L394.4,-256.85L409.39,-283.73L410.54,-285.37L414,-287.65" style="vector-effect: non-scaling-stroke; fill: none; stroke: rgb(0, 0, 0); stroke-opacity: 1; stroke-width: 1.5px; opacity: 1;"/></g><g class="points"/><g class="text"/></g><g class="trace scatter traceead3c4" style="stroke-miterlimit: 2; opacity: 1;"><g class="fills"/><g class="errorbars"/><g class="lines"><path class="js-line" d="M-8279.999999999998,155.95L-8280,155.95L8694.000000000015,155.95L8693.999999999998,155.95" style="vector-effect: non-scaling-stroke; fill: none; stroke: rgb(0, 0, 0); stroke-opacity: 1; stroke-width: 1px; opacity: 1; stroke-dasharray: 9px, 9px;"/></g><g class="points"/><g class="text"/></g><g class="trace scatter trace55d6a5" style="stroke-miterlimit: 2; opacity: 1;"><g class="fills"/><g class="errorbars"/><g class="lines"><path class="js-line" d="M0.01,7666.750000000001L0.01,7666.75L0.01,-7301.6666666666715L0.01,-7301.666666666668" style="vector-effect: non-scaling-stroke; fill: none; stroke: rgb(0, 0, 0); stroke-opacity: 1; stroke-width: 1px; opacity: 1;"/></g><g class="points"/><g class="text"/></g><g class="trace scatter trace96600a" style="stroke-miterlimit: 2; opacity: 1;"><g class="fills"/><g class="errorbars"/><g class="lines"><path class="js-line" d="M44.99,7666.750000000001L44.99,7666.75L44.99,-7301.6666666666715L44.99,-7301.666666666668" style="vector-effect: non-scaling-stroke; fill: none; stroke: rgb(0, 0, 0); stroke-opacity: 1; stroke-width: 1.5px; opacity: 1;"/></g><g class="points"/><g class="text"/></g><g class="trace scatter trace863cbe" style="stroke-miterlimit: 2; opacity: 1;"><g class="fills"/><g class="errorbars"/><g class="lines"><path class="js-line" d="M91.11,7666.750000000001L91.11,7666.75L91.11,-7301.6666666666715L91.11,-7301.666666666668" style="vector-effect: non-scaling-stroke; fill: none; stroke: rgb(0, 0, 0); stroke-opacity: 1; stroke-width: 1.5px; opacity: 1;"/></g><g class="points"/><g class="text"/></g><g class="trace scatter tracefdf922" style="stroke-miterlimit: 2; opacity: 1;"><g class="fills"/><g class="errorbars"/><g class="lines"><path class="js-line" d="M137.24,7666.750000000001L137.24,7666.75L137.24,-7301.6666666666715L137.24,-7301.666666666668" style="vector-effect: non-scaling-stroke; fill: none; stroke: rgb(0, 0, 0); stroke-opacity: 1; stroke-width: 1.5px; opacity: 1;"/></g><g class="points"/><g class="text"/></g><g class="trace scatter trace943e80" style="stroke-miterlimit: 2; opacity: 1;"><g class="fills"/><g class="errorbars"/><g class="lines"><path class="js-line" d="M183.37,7666.750000000001L183.37,7666.75L183.37,-7301.6666666666715L183.37,-7301.666666666668" style="vector-effect: non-scaling-stroke; fill: none; stroke: rgb(0, 0, 0); stroke-opacity: 1; stroke-width: 1.5px; opacity: 1;"/></g><g class="points"/><g class="text"/></g><g class="trace scatter tracef1553b" style="stroke-miterlimit: 2; opacity: 1;"><g class="fills"/><g class="errorbars"/><g class="lines"><path class="js-line" d="M229.49,7666.750000000001L229.49,7666.75L229.49,-7301.6666666666715L229.49,-7301.666666666668" style="vector-effect: non-scaling-stroke; fill: none; stroke: rgb(0, 0, 0); stroke-opacity: 1; stroke-width: 1.5px; opacity: 1;"/></g><g class="points"/><g class="text"/></g><g class="trace scatter tracead0b00" style="stroke-miterlimit: 2; opacity: 1;"><g class="fills"/><g class="errorbars"/><g class="lines"><path class="js-line" d="M275.62,7666.750000000001L275.62,7666.75L275.62,-7301.6666666666715L275.62,-7301.666666666668" style="vector-effect: non-scaling-stroke; fill: none; stroke: rgb(0, 0, 0); stroke-opacity: 1; stroke-width: 1.5px; opacity: 1;"/></g><g class="points"/><g class="text"/></g><g class="trace scatter trace01228a" style="stroke-miterlimit: 2; opacity: 1;"><g class="fills"/><g class="errorbars"/><g class="lines"><path class="js-line" d="M321.75,7666.750000000001L321.75,7666.75L321.75,-7301.6666666666715L321.75,-7301.666666666668" style="vector-effect: non-scaling-stroke; fill: none; stroke: rgb(0, 0, 0); stroke-opacity: 1; stroke-width: 1.5px; opacity: 1;"/></g><g class="points"/><g class="text"/></g><g class="trace scatter tracef52a15" style="stroke-miterlimit: 2; opacity: 1;"><g class="fills"/><g class="errorbars"/><g class="lines"><path class="js-line" d="M367.87,7666.750000000001L367.87,7666.75L367.87,-7301.6666666666715L367.87,-7301.666666666668" style="vector-effect: non-scaling-stroke; fill: none; stroke: rgb(0, 0, 0); stroke-opacity: 1; stroke-width: 1.5px; opacity: 1;"/></g><g class="points"/><g class="text"/></g><g class="trace scatter trace3e39b0" style="stroke-miterlimit: 2; opacity: 1;"><g class="fills"/><g class="errorbars"/><g class="lines"><path class="js-line" d="M414,7666.750000000001L414,7666.75L414,-7301.6666666666715L414,-7301.666666666668" style="vector-effect: non-scaling-stroke; fill: none; stroke: rgb(0, 0, 0); stroke-opacity: 1; stroke-width: 1.5px; opacity: 1;"/></g><g class="points"/><g class="text"/></g><g class="trace scatter trace33e61e" style="stroke-miterlimit: 2; opacity: 1;"><g class="fills"/><g class="errorbars"/><g class="lines"><path class="js-line" d="M-8279.999999999998,365.08L-8280,365.08L8694.000000000015,365.08L8693.999999999998,365.08" style="vector-effect: non-scaling-stroke; fill: none; stroke: rgb(0, 0, 0); stroke-opacity: 1; stroke-width: 4px; opacity: 1;"/></g><g class="points"/><g class="text"/></g><g class="trace scatter trace88963b" style="stroke-miterlimit: 2; opacity: 1;"><g class="fills"/><g class="errorbars"/><g class="lines"><path class="js-line" d="M-8279.999999999998,0L-8280,0L8694.000000000015,0L8693.999999999998,0" style="vector-effect: non-scaling-stroke; fill: none; stroke: rgb(0, 0, 0); stroke-opacity: 1; stroke-width: 4px; opacity: 1;"/></g><g class="points"/><g class="text"/></g><g class="trace scatter trace532295" style="stroke-miterlimit: 2; opacity: 1;"><g class="fills"/><g class="errorbars"/><g class="lines"><path class="js-line" d="M0.01,7666.750000000001L0.01,7666.75L0.01,-7301.6666666666715L0.01,-7301.666666666668" style="vector-effect: non-scaling-stroke; fill: none; stroke: rgb(0, 0, 0); stroke-opacity: 1; stroke-width: 4px; opacity: 1;"/></g><g class="points"/><g class="text"/></g><g class="trace scatter tracef4b1ae" style="stroke-miterlimit: 2; opacity: 1;"><g class="fills"/><g class="errorbars"/><g class="lines"><path class="js-line" d="M414,7666.750000000001L414,7666.75L414,-7301.6666666666715L414,-7301.666666666668" style="vector-effect: non-scaling-stroke; fill: none; stroke: rgb(0, 0, 0); stroke-opacity: 1; stroke-width: 4px; opacity: 1;"/></g><g class="points"/><g class="text"/></g></g></g><g class="overplot"/><path class="xlines-above crisp" d="" style="fill: none; stroke-width: 1px; stroke: rgb(0, 0, 0); stroke-opacity: 0;"/><path class="ylines-above crisp" d="" style="fill: none; stroke-width: 1px; stroke: rgb(0, 0, 0); stroke-opacity: 0;"/><g class="overlines-above"/><g class="xaxislayer-above"><path class="x2tick ticks crisp" d="M0,434.8333333333334v-5" transform="translate(268.99,0)" style="stroke: rgb(0, 0, 0); stroke-opacity: 0; stroke-width: 1px;"/><path class="x2tick ticks crisp" d="M0,434.8333333333334v-5" transform="translate(315.11,0)" style="stroke: rgb(0, 0, 0); stroke-opacity: 0; stroke-width: 1px;"/><path class="x2tick ticks crisp" d="M0,434.8333333333334v-5" transform="translate(361.24,0)" style="stroke: rgb(0, 0, 0); stroke-opacity: 0; stroke-width: 1px;"/><path class="x2tick ticks crisp" d="M0,434.8333333333334v-5" transform="translate(407.37,0)" style="stroke: rgb(0, 0, 0); stroke-opacity: 0; stroke-width: 1px;"/><path class="x2tick ticks crisp" d="M0,434.8333333333334v-5" transform="translate(453.49,0)" style="stroke: rgb(0, 0, 0); stroke-opacity: 0; stroke-width: 1px;"/><path class="x2tick ticks crisp" d="M0,434.8333333333334v-5" transform="translate(499.62,0)" style="stroke: rgb(0, 0, 0); stroke-opacity: 0; stroke-width: 1px;"/><path class="x2tick ticks crisp" d="M0,434.8333333333334v-5" transform="translate(545.75,0)" style="stroke: rgb(0, 0, 0); stroke-opacity: 0; stroke-width: 1px;"/><path class="x2tick ticks crisp" d="M0,434.8333333333334v-5" transform="translate(591.87,0)" style="stroke: rgb(0, 0, 0); stroke-opacity: 0; stroke-width: 1px;"/><g class="x2tick"><text text-anchor="middle" x="0" y="446.8333333333334" transform="translate(224.01,0)" style="font-family: sans-serif; font-size: 11px; fill: rgb(0, 0, 0); fill-opacity: 1; white-space: pre;">GAMMA</text></g><g class="x2tick"><text text-anchor="middle" x="0" y="446.8333333333334" transform="translate(268.99,0)" style="font-family: sans-serif; font-size: 11px; fill: rgb(0, 0, 0); fill-opacity: 1; white-space: pre;">M</text></g><g class="x2tick"><text text-anchor="middle" x="0" y="446.8333333333334" transform="translate(315.11,0)" style="font-family: sans-serif; font-size: 11px; fill: rgb(0, 0, 0); fill-opacity: 1; white-space: pre;">K</text></g><g class="x2tick"><text text-anchor="middle" x="0" y="446.8333333333334" transform="translate(361.24,0)" style="font-family: sans-serif; font-size: 11px; fill: rgb(0, 0, 0); fill-opacity: 1; white-space: pre;">GAMMA</text></g><g class="x2tick"><text text-anchor="middle" x="0" y="446.8333333333334" transform="translate(407.37,0)" style="font-family: sans-serif; font-size: 11px; fill: rgb(0, 0, 0); fill-opacity: 1; white-space: pre;">A</text></g><g class="x2tick"><text text-anchor="middle" x="0" y="446.8333333333334" transform="translate(453.49,0)" style="font-family: sans-serif; font-size: 11px; fill: rgb(0, 0, 0); fill-opacity: 1; white-space: pre;">L</text></g><g class="x2tick"><text text-anchor="middle" x="0" y="446.8333333333334" transform="translate(499.62,0)" style="font-family: sans-serif; font-size: 11px; fill: rgb(0, 0, 0); fill-opacity: 1; white-space: pre;">H</text></g><g class="x2tick"><text text-anchor="middle" x="0" y="446.8333333333334" transform="translate(545.75,0)" style="font-family: sans-serif; font-size: 11px; fill: rgb(0, 0, 0); fill-opacity: 1; white-space: pre;">A | L</text></g><g class="x2tick"><text text-anchor="middle" x="0" y="446.8333333333334" transform="translate(591.87,0)" style="font-family: sans-serif; font-size: 11px; fill: rgb(0, 0, 0); fill-opacity: 1; white-space: pre;">M | H</text></g><g class="x2tick"><text text-anchor="middle" x="0" y="446.8333333333334" transform="translate(638,0)" style="font-family: sans-serif; font-size: 11px; fill: rgb(0, 0, 0); fill-opacity: 1; white-space: pre;">K</text></g></g><g class="yaxislayer-above"/><g class="overaxes-above"/></g></g><g class="polarlayer"/><g class="ternarylayer"/><g class="geolayer"/><g class="funnelarealayer"/><g class="pielayer"/><g class="treemaplayer"/><g class="sunburstlayer"/><g class="glimages"/><defs id="topdefs-61c4d2"><g class="clips"/></defs><g class="layer-above"><g class="imagelayer"/><g class="shapelayer"/></g><g class="infolayer"><g class="g-gtitle"/><g class="g-xtitle"/><g class="g-x2title"/><g class="g-ytitle"/><g class="g-y2title"/></g></svg>